<svg xmlns="http://www.w3.org/2000/svg"
 xmlns:xlink="http://www.w3.org/1999/xlink"
 width="34px" height="34px"  viewBox="0 0 34 34">
<path fill-rule="evenodd"  fill="#95e1d3"
 d="M31.739624,11.502808 C30.156342,7.8065796 27.193115,4.843048 23.497375,3.2600403 C24.496765,2.473297 25.7547,1.999939 27.12561,1.999939 C30.369873,1.999939 32.99997,4.629608 32.99997,7.8739624 C32.99997,9.244934 32.52664,10.502655 31.739624,11.502808 ZM31.5,17.999725 C31.5,21.85196 29.987762,25.342896 27.537476,27.939789 C27.537476,27.939789 29.565613,29.967651 29.565613,29.967651 C29.833954,30.236511 30.0,30.607147 30.0,31.016602 C30.0,31.835632 29.335907,32.499664 28.516846,32.499664 C28.10727,32.499664 27.73648,32.333923 27.46814,32.065155 C27.46814,32.065155 25.289612,29.886566 25.289612,29.886566 C22.939117,31.529205 20.084839,32.499664 17.0,32.499664 C13.921173,32.499664 11.071838,31.533478 8.7239685,29.896698 C8.7239685,29.896698 6.560669,32.060303 6.560669,32.060303 C6.2891235,32.331543 5.914215,32.499664 5.499939,32.499664 C4.6716003,32.499664 3.999939,31.82779 3.999939,30.99942 C3.999939,30.585663 4.1678467,30.210205 4.4393005,29.938934 C4.4393005,29.938934 6.451172,27.927368 6.451172,27.927368 C4.0077515,25.331573 2.4999695,21.845276 2.4999695,17.999725 C2.4999695,9.991821 8.991882,3.4995728 17.0,3.4995728 C25.008118,3.4995728 31.5,9.991821 31.5,17.999725 ZM17.0,6.499481 C10.648621,6.499481 5.499939,11.648071 5.499939,17.999725 C5.499939,24.351166 10.648621,29.499756 17.0,29.499756 C23.351227,29.499756 28.499939,24.351166 28.499939,17.999725 C28.499939,11.648071 23.351227,6.499481 17.0,6.499481 ZM23.0,19.499786 C23.0,19.499786 17.0,19.499786 17.0,19.499786 C16.17154,19.499786 15.5,18.828094 15.5,17.999725 C15.5,17.999725 15.5,9.999481 15.5,9.999481 C15.5,9.171509 16.17154,8.499817 17.0,8.499817 C17.82843,8.499817 18.49997,9.171509 18.49997,9.999481 C18.49997,9.999481 18.49997,16.49936 18.49997,16.49936 C18.49997,16.49936 23.0,16.49936 23.0,16.49936 C23.82843,16.49936 24.5,17.171051 24.5,17.999725 C24.5,18.828094 23.82843,19.499786 23.0,19.499786 ZM2.2872314,11.705322 C1.4833984,10.6848755 1.0,9.399841 1.0,7.999756 C1.0,4.685669 3.6862793,1.999939 6.9999084,1.999939 C8.400085,1.999939 9.685028,2.483429 10.705841,3.2867432 C6.930908,4.903961 3.9042969,7.9305725 2.2872314,11.705322 Z"/>
</svg>