<svg xmlns="http://www.w3.org/2000/svg"
 xmlns:xlink="http://www.w3.org/1999/xlink"
 width="35px" height="35px"  viewBox="0 0 35 35">
<path fill-rule="evenodd"  fill="#95e1d3"
 d="M33.064514,27.889282 C33.064514,27.889282 18.593689,33.877136 18.593689,33.877136 C18.411621,33.95575 18.210876,33.999878 17.99997,33.999878 C17.789062,33.999878 17.588318,33.95575 17.40625,33.877136 C17.40625,33.877136 2.9353027,27.889282 2.9353027,27.889282 C2.3867798,27.666382 2.0,27.128052 2.0,26.499878 C2.0,26.499878 2.0,3.4996338 2.0,3.4996338 C2.0,2.6710815 2.6715088,2.0 3.4999695,2.0 C3.7032166,2.0 3.8967285,2.0405273 4.0734253,2.1138306 C4.0734253,2.1138306 4.0735474,2.1138306 4.0735474,2.1138306 C4.0735474,2.1138306 4.0759277,2.1149292 4.0759277,2.1149292 C4.080414,2.11615 4.0848694,2.1185303 4.089325,2.1204224 C4.089325,2.1204224 17.99997,7.876465 17.99997,7.876465 C17.99997,7.876465 31.910614,2.1204224 31.910614,2.1204224 C31.914948,2.1185303 31.919525,2.11615 31.924011,2.1149292 C31.924011,2.1149292 31.926514,2.1138306 31.926514,2.1138306 C31.926514,2.1138306 31.926514,2.1138306 31.926514,2.1138306 C32.10321,2.0405273 32.296722,2.0 32.49997,2.0 C33.32843,2.0 33.99994,2.6710815 33.99994,3.4996338 C33.99994,3.4996338 33.99994,26.499878 33.99994,26.499878 C33.99994,27.128052 33.61316,27.666382 33.064514,27.889282 ZM16.5,10.502502 C16.5,10.502502 4.999939,5.7437744 4.999939,5.7437744 C4.999939,5.7437744 4.999939,25.496643 4.999939,25.496643 C4.999939,25.496643 16.5,30.255615 16.5,30.255615 C16.5,30.255615 16.5,10.502502 16.5,10.502502 ZM31.0,5.7437744 C31.0,5.7437744 19.499939,10.502502 19.499939,10.502502 C19.499939,10.502502 19.499939,30.255615 19.499939,30.255615 C19.499939,30.255615 31.0,25.496643 31.0,25.496643 C31.0,25.496643 31.0,5.7437744 31.0,5.7437744 ZM21.879272,12.633972 C21.879272,12.633972 27.379333,10.134155 27.379333,10.134155 C27.379333,10.134155 27.379333,10.134155 27.379333,10.134155 C27.568481,10.0477295 27.778503,9.999512 27.999939,9.999512 C28.82837,9.999512 29.50003,10.671204 29.50003,11.499695 C29.50003,12.106567 29.139313,12.6293335 28.620667,12.865173 C28.620667,12.865173 28.620667,12.865173 28.620667,12.865173 C28.620667,12.865173 23.120636,15.36499 23.120636,15.36499 C23.120636,15.36499 23.120636,15.36499 23.120636,15.36499 C22.931458,15.451538 22.721466,15.499756 22.5,15.499756 C21.67157,15.499756 20.999939,14.828064 20.999939,13.999512 C20.999939,13.392822 21.360657,12.870056 21.879272,12.633972 ZM21.879272,18.134277 C21.879272,18.134277 21.879272,18.134277 21.879272,18.134277 C21.879272,18.134277 27.379333,15.633911 27.379333,15.633911 C27.379333,15.633911 27.379333,15.633911 27.379333,15.633911 C27.568481,15.548157 27.778503,15.499756 27.999939,15.499756 C28.82837,15.499756 29.50003,16.17102 29.50003,16.99939 C29.50003,17.606873 29.139313,18.129028 28.620667,18.365051 C28.620667,18.365051 23.120636,20.865417 23.120636,20.865417 C23.120636,20.865417 23.120636,20.864868 23.120636,20.864868 C22.931458,20.951172 22.721466,20.999573 22.5,20.999573 C21.67157,20.999573 20.999939,20.32788 20.999939,19.499939 C20.999939,18.892517 21.360657,18.370361 21.879272,18.134277 ZM21.879272,23.634155 C21.879272,23.634155 21.879272,23.634155 21.879272,23.634155 C21.879272,23.634155 27.379333,21.134216 27.379333,21.134216 C27.379333,21.134216 27.379333,21.134216 27.379333,21.134216 C27.568481,21.047852 27.778503,20.999573 27.999939,20.999573 C28.82837,20.999573 29.50003,21.671387 29.50003,22.499817 C29.50003,23.106506 29.139313,23.629272 28.620667,23.865356 C28.620667,23.865356 28.620667,23.865356 28.620667,23.865356 C28.620667,23.865356 23.120636,26.365173 23.120636,26.365173 C23.120636,26.365173 23.120636,26.365173 23.120636,26.365173 C22.931458,26.451538 22.721466,26.499878 22.5,26.499878 C21.67157,26.499878 20.999939,25.828125 20.999939,24.999634 C20.999939,24.392944 21.360657,23.87024 21.879272,23.634155 ZM8.0,9.999512 C8.221436,9.999512 8.4314575,10.0477295 8.620605,10.134155 C8.620605,10.134155 8.620605,10.134155 8.620605,10.134155 C8.620605,10.134155 14.1206665,12.633972 14.1206665,12.633972 C14.1206665,12.633972 14.1206665,12.633972 14.1206665,12.633972 C14.639282,12.870056 15.0,13.392822 15.0,13.999512 C15.0,14.828064 14.328369,15.499756 13.499939,15.499756 C13.278473,15.499756 13.068481,15.451538 12.879303,15.36499 C12.879303,15.36499 12.879303,15.36499 12.879303,15.36499 C12.879303,15.36499 7.3792725,12.865173 7.3792725,12.865173 C7.3792725,12.865173 7.3792725,12.865173 7.3792725,12.865173 C6.860626,12.6293335 6.4999084,12.106567 6.4999084,11.499695 C6.4999084,10.671204 7.17157,9.999512 8.0,9.999512 ZM8.0,15.499756 C8.221436,15.499756 8.4314575,15.548157 8.620605,15.633911 C8.620605,15.633911 8.620605,15.633911 8.620605,15.633911 C8.620605,15.633911 14.1206665,18.134277 14.1206665,18.134277 C14.1206665,18.134277 14.1206665,18.134277 14.1206665,18.134277 C14.639282,18.370361 15.0,18.892517 15.0,19.499939 C15.0,20.32788 14.328369,20.999573 13.499939,20.999573 C13.278473,20.999573 13.068481,20.951172 12.879303,20.864868 C12.879303,20.864868 12.879303,20.865417 12.879303,20.865417 C12.879303,20.865417 7.3792725,18.365051 7.3792725,18.365051 C7.3792725,18.365051 7.3792725,18.365051 7.3792725,18.365051 C6.860626,18.129028 6.4999084,17.606873 6.4999084,16.99939 C6.4999084,16.17102 7.17157,15.499756 8.0,15.499756 ZM8.0,20.999573 C8.221436,20.999573 8.4314575,21.047852 8.620605,21.134216 C8.620605,21.134216 8.620605,21.134216 8.620605,21.134216 C8.620605,21.134216 14.1206665,23.634155 14.1206665,23.634155 C14.1206665,23.634155 14.1206665,23.634155 14.1206665,23.634155 C14.639282,23.87024 15.0,24.392944 15.0,24.999634 C15.0,25.828125 14.328369,26.499878 13.499939,26.499878 C13.278473,26.499878 13.068481,26.451538 12.879303,26.365173 C12.879303,26.365173 12.879303,26.365173 12.879303,26.365173 C12.879303,26.365173 7.3792725,23.865356 7.3792725,23.865356 C7.3792725,23.865356 7.3792725,23.865356 7.3792725,23.865356 C6.860626,23.629272 6.4999084,23.106506 6.4999084,22.499817 C6.4999084,21.671387 7.17157,20.999573 8.0,20.999573 Z"/>
</svg>