<svg xmlns="http://www.w3.org/2000/svg"
 xmlns:xlink="http://www.w3.org/1999/xlink"
 width="34px" height="31px"  viewBox="0 0 34 31">
<path fill-rule="evenodd"  fill="#95e1d3"
 d="M31.0,24.999512 C31.0,24.999512 23.5,24.999512 23.5,24.999512 C23.5,24.999512 21.5,24.999512 21.5,24.999512 C21.5,24.999512 21.5,27.49942 21.5,27.49942 C21.5,27.49942 23.5,29.499756 23.5,29.499756 C23.5,29.499756 23.5,29.999847 23.5,29.999847 C23.5,29.999847 10.5,29.999847 10.5,29.999847 C10.5,29.999847 10.5,29.499756 10.5,29.499756 C10.5,29.499756 12.5,27.49942 12.5,27.49942 C12.5,27.49942 12.5,24.999512 12.5,24.999512 C12.5,24.999512 10.5,24.999512 10.5,24.999512 C10.5,24.999512 3.0,24.999512 3.0,24.999512 C2.1716309,24.999512 1.5,24.327911 1.5,23.499268 C1.5,23.499268 1.5,3.4995728 1.5,3.4995728 C1.5,2.671112 2.1716309,1.999939 3.0,1.999939 C3.0,1.999939 31.0,1.999939 31.0,1.999939 C31.828491,1.999939 32.5,2.671112 32.5,3.4995728 C32.5,3.4995728 32.5,23.499268 32.5,23.499268 C32.5,24.327911 31.828491,24.999512 31.0,24.999512 ZM30.5,3.9996643 C30.5,3.9996643 3.5,3.9996643 3.5,3.9996643 C3.5,3.9996643 3.5,20.99942 3.5,20.99942 C3.5,20.99942 30.5,20.99942 30.5,20.99942 C30.5,20.99942 30.5,3.9996643 30.5,3.9996643 ZM14.0,10.999634 C14.414185,10.999634 14.789185,11.167755 15.060547,11.438934 C15.060547,11.438934 15.060547,11.438934 15.060547,11.438934 C15.060547,11.438934 15.999878,12.378387 15.999878,12.378387 C15.999878,12.378387 18.939331,9.439178 18.939331,9.439178 C18.939331,9.439178 18.939331,9.439178 18.939331,9.439178 C19.210815,9.167419 19.585693,8.999908 20.0,8.999908 C20.82837,8.999908 21.5,9.67099 21.5,10.499573 C21.5,10.91391 21.332031,11.288788 21.060669,11.560425 C21.060669,11.560425 21.060669,11.560425 21.060669,11.560425 C21.060669,11.560425 17.060669,15.560608 17.060669,15.560608 C17.060669,15.560608 17.060669,15.560608 17.060669,15.560608 C16.789185,15.831879 16.414185,16.0 15.999878,16.0 C15.585815,16.0 15.210693,15.831879 14.939331,15.560608 C14.939331,15.560608 14.939331,15.560608 14.939331,15.560608 C14.939331,15.560608 12.939331,13.560181 12.939331,13.560181 C12.939331,13.560181 12.939331,13.560181 12.939331,13.560181 C12.667847,13.289124 12.5,12.913452 12.5,12.499908 C12.5,11.671326 13.171631,10.999634 14.0,10.999634 Z"/>
</svg>