<svg xmlns="http://www.w3.org/2000/svg"
 xmlns:xlink="http://www.w3.org/1999/xlink"
 width="35px" height="33px"  viewBox="0 0 35 33">
<path fill-rule="evenodd"  fill="#95e1d3"
 d="M33.99994,17.499634 C33.99994,18.328308 33.32837,18.999329 32.49994,18.999329 C32.104797,18.999329 31.748047,18.843811 31.480164,18.594116 C31.480164,18.594116 31.476501,18.597595 31.476501,18.597595 C31.476501,18.597595 18.038147,5.1591187 18.038147,5.1591187 C18.038147,5.1591187 18.038269,5.1585083 18.038269,5.1585083 C18.038269,5.1585083 17.999939,5.1222534 17.999939,5.1222534 C17.999939,5.1222534 17.999939,5.121643 17.999939,5.121643 C17.999939,5.121643 4.553833,18.568481 4.553833,18.568481 C4.553833,18.568481 4.5531616,18.567871 4.5531616,18.567871 C4.2822266,18.834839 3.9104614,18.999329 3.500061,18.999329 C2.6715088,18.999329 1.999939,18.328308 1.999939,17.499634 C1.999939,17.074707 2.177002,16.691467 2.4608154,16.41858 C2.4608154,16.41858 16.918823,1.960083 16.918823,1.960083 C17.191772,1.6765137 17.575012,1.4994507 17.999939,1.4994507 C17.999939,1.4994507 17.999939,1.4994507 17.999939,1.4994507 C17.999939,1.4994507 17.999939,1.4994507 17.999939,1.4994507 C18.000183,1.4994507 18.000305,1.4994507 18.000488,1.4994507 C18.0271,1.4994507 18.053406,1.500061 18.07959,1.501831 C18.08374,1.501831 18.087952,1.5024414 18.092041,1.5024414 C18.114746,1.5041504 18.137146,1.5059204 18.159607,1.5084229 C18.16095,1.5084229 18.162476,1.5084229 18.16394,1.5089722 C18.531067,1.5488281 18.858154,1.7212524 19.096985,1.9768677 C19.096985,1.9768677 19.097778,1.9763184 19.097778,1.9763184 C19.097778,1.9763184 24.999939,7.878235 24.999939,7.878235 C24.999939,7.878235 24.999939,6.499695 24.999939,6.499695 C24.999939,5.6711426 25.671509,4.9994507 26.499939,4.9994507 C27.32837,4.9994507 27.999878,5.6711426 27.999878,6.499695 C27.999878,6.499695 27.999878,10.878174 27.999878,10.878174 C27.999878,10.878174 33.59778,16.476257 33.59778,16.476257 C33.59778,16.476257 33.59436,16.47992 33.59436,16.47992 C33.844055,16.747498 33.99994,17.104614 33.99994,17.499634 ZM31.0,19.999573 C31.0,19.999573 31.0,24.499756 31.0,24.499756 C31.0,24.499756 31.0,26.49945 31.0,26.49945 C31.0,26.49945 31.0,30.499573 31.0,30.499573 C31.0,31.328003 30.32843,31.999817 29.5,31.999817 C29.5,31.999817 26.499939,31.999817 26.499939,31.999817 C26.499939,31.999817 26.499939,19.999573 26.499939,19.999573 C26.499939,19.999573 20.5,19.999573 20.5,19.999573 C20.5,19.999573 20.5,31.999817 20.5,31.999817 C20.5,31.999817 6.5,31.999817 6.5,31.999817 C5.67157,31.999817 5.0,31.328003 5.0,30.499573 C5.0,30.499573 5.0,26.49945 5.0,26.49945 C5.0,26.49945 5.0,24.499756 5.0,24.499756 C5.0,24.499756 5.0,19.999573 5.0,19.999573 C5.0,19.999573 17.999939,6.999817 17.999939,6.999817 C17.999939,6.999817 31.0,19.999573 31.0,19.999573 ZM15.5,19.999573 C15.5,19.999573 9.499939,19.999573 9.499939,19.999573 C9.499939,19.999573 9.499939,26.0 9.499939,26.0 C9.499939,26.0 15.5,26.0 15.5,26.0 C15.5,26.0 15.5,19.999573 15.5,19.999573 Z"/>
</svg>