<svg xmlns="http://www.w3.org/2000/svg"
 xmlns:xlink="http://www.w3.org/1999/xlink"
 width="36px" height="35px"  viewBox="0 0 36 35">
<path fill-rule="evenodd"  fill="#95e1d3"
 d="M32.5,33.999878 C32.5,33.999878 3.5,33.999878 3.5,33.999878 C2.6715088,33.999878 1.9998779,33.328186 1.9998779,32.499695 C1.9998779,32.499695 1.9998779,3.4996338 1.9998779,3.4996338 C1.9998779,2.6710815 2.6715088,2.0 3.5,2.0 C3.5,2.0 32.5,2.0 32.5,2.0 C33.32849,2.0 34.0,2.6710815 34.0,3.4996338 C34.0,3.4996338 34.0,32.499695 34.0,32.499695 C34.0,33.328186 33.32849,33.999878 32.5,33.999878 ZM31.0,4.999878 C31.0,4.999878 5.0,4.999878 5.0,4.999878 C5.0,4.999878 5.0,30.99945 5.0,30.99945 C5.0,30.99945 31.0,30.99945 31.0,30.99945 C31.0,30.99945 31.0,4.999878 31.0,4.999878 ZM8.5,6.4995117 C8.5,6.4995117 13.999878,6.4995117 13.999878,6.4995117 C13.999878,6.4995117 14.0,6.4995117 14.0,6.4995117 C14.828369,6.4995117 15.5,7.1712036 15.5,7.999817 C15.5,8.828247 14.828369,9.499451 14.0,9.499451 C14.0,9.499451 14.0,9.499451 14.0,9.499451 C14.0,9.499451 9.5,9.499451 9.5,9.499451 C9.5,9.499451 9.5,13.999512 9.5,13.999512 C9.5,13.999512 9.5,13.999512 9.5,13.999512 C9.5,14.828064 8.828369,15.499756 8.0,15.499756 C7.171631,15.499756 6.5,14.828064 6.5,13.999512 C6.5,13.999512 6.5,13.999512 6.5,13.999512 C6.5,13.999512 6.5,8.499878 6.5,8.499878 C6.5,8.499878 6.5,8.499878 6.5,8.499878 C6.5,8.499878 6.5,6.4995117 6.5,6.4995117 C6.5,6.4995117 8.5,6.4995117 8.5,6.4995117 C8.5,6.4995117 8.5,6.4995117 8.5,6.4995117 ZM6.5,21.999756 C6.5,21.999756 6.5,21.999756 6.5,21.999756 C6.5,21.171265 7.171631,20.499512 8.0,20.499512 C8.828369,20.499512 9.5,21.171265 9.5,21.999756 C9.5,21.999756 9.5,21.999756 9.5,21.999756 C9.5,21.999756 9.5,26.499329 9.5,26.499329 C9.5,26.499329 14.0,26.499329 14.0,26.499329 C14.0,26.499329 14.0,26.499878 14.0,26.499878 C14.828369,26.499878 15.5,27.17096 15.5,27.999573 C15.5,28.828003 14.828369,29.499817 14.0,29.499817 C14.0,29.499817 13.999878,29.499817 13.999878,29.499817 C13.999878,29.499817 8.5,29.499817 8.5,29.499817 C8.5,29.499817 8.5,29.499817 8.5,29.499817 C8.5,29.499817 6.5,29.499817 6.5,29.499817 C6.5,29.499817 6.5,27.49945 6.5,27.49945 C6.5,27.49945 6.5,27.49945 6.5,27.49945 C6.5,27.49945 6.5,21.999756 6.5,21.999756 ZM22.0,6.4995117 C22.0,6.4995117 22.000122,6.4995117 22.000122,6.4995117 C22.000122,6.4995117 27.5,6.4995117 27.5,6.4995117 C27.5,6.4995117 27.5,6.4995117 27.5,6.4995117 C27.5,6.4995117 29.5,6.4995117 29.5,6.4995117 C29.5,6.4995117 29.5,8.499878 29.5,8.499878 C29.5,8.499878 29.5,8.499878 29.5,8.499878 C29.5,8.499878 29.5,13.999512 29.5,13.999512 C29.5,13.999512 29.5,13.999512 29.5,13.999512 C29.5,14.828064 28.82837,15.499756 28.0,15.499756 C27.171509,15.499756 26.499878,14.828064 26.499878,13.999512 C26.499878,13.999512 26.499878,13.999512 26.499878,13.999512 C26.499878,13.999512 26.499878,9.499451 26.499878,9.499451 C26.499878,9.499451 22.0,9.499451 22.0,9.499451 C22.0,9.499451 22.0,9.499451 22.0,9.499451 C21.171509,9.499451 20.5,8.828247 20.5,7.999817 C20.5,7.1712036 21.171509,6.4995117 22.0,6.4995117 ZM22.0,26.499878 C22.0,26.499878 22.0,26.499329 22.0,26.499329 C22.0,26.499329 26.499878,26.499329 26.499878,26.499329 C26.499878,26.499329 26.499878,21.999756 26.499878,21.999756 C26.499878,21.999756 26.499878,21.999756 26.499878,21.999756 C26.499878,21.171265 27.171509,20.499512 28.0,20.499512 C28.82837,20.499512 29.5,21.171265 29.5,21.999756 C29.5,21.999756 29.5,21.999756 29.5,21.999756 C29.5,21.999756 29.5,27.49945 29.5,27.49945 C29.5,27.49945 29.5,27.49945 29.5,27.49945 C29.5,27.49945 29.5,29.499817 29.5,29.499817 C29.5,29.499817 27.5,29.499817 27.5,29.499817 C27.5,29.499817 27.5,29.499817 27.5,29.499817 C27.5,29.499817 22.000122,29.499817 22.000122,29.499817 C22.000122,29.499817 22.0,29.499817 22.0,29.499817 C21.171509,29.499817 20.5,28.828003 20.5,27.999573 C20.5,27.17096 21.171509,26.499878 22.0,26.499878 Z"/>
</svg>