<svg xmlns="http://www.w3.org/2000/svg"
 xmlns:xlink="http://www.w3.org/1999/xlink"
 width="35px" height="35px"  viewBox="0 0 35 35">
<path fill-rule="evenodd"  fill="#95e1d3"
 d="M31.499939,33.999756 C31.499939,33.999756 2.499939,33.999756 2.499939,33.999756 C1.6716309,33.999756 1.000061,33.32788 1.000061,32.49951 C1.000061,32.49951 1.000061,3.4994202 1.000061,3.4994202 C1.000061,2.6715393 1.6716309,1.9997559 2.499939,1.9997559 C2.499939,1.9997559 31.499939,1.9997559 31.499939,1.9997559 C32.32837,1.9997559 33.0,2.6715393 33.0,3.4994202 C33.0,3.4994202 33.0,32.49951 33.0,32.49951 C33.0,33.32788 32.32837,33.999756 31.499939,33.999756 ZM29.999939,4.9996643 C29.999939,4.9996643 4.0,4.9996643 4.0,4.9996643 C4.0,4.9996643 4.0,30.999847 4.0,30.999847 C4.0,30.999847 29.999939,30.999847 29.999939,30.999847 C29.999939,30.999847 29.999939,4.9996643 29.999939,4.9996643 ZM6.215332,18.238434 C6.215332,18.238434 6.2146606,18.237213 6.2146606,18.237213 C6.2146606,18.237213 10.2146,15.737396 10.2146,15.737396 C10.2146,15.737396 10.215393,15.738586 10.215393,15.738586 C10.443726,15.597992 10.712341,15.516937 10.999878,15.516937 C11.311279,15.516937 11.600403,15.611725 11.840149,15.774384 C11.840149,15.774384 11.845947,15.765533 11.845947,15.765533 C11.845947,15.765533 18.476685,20.185791 18.476685,20.185791 C18.476685,20.185791 26.11493,14.794464 26.11493,14.794464 C26.363037,14.612732 26.668945,14.505432 27.0,14.505432 C27.828308,14.505432 28.5,15.176605 28.5,16.005096 C28.5,16.505157 28.254944,16.948029 27.878479,17.220459 C27.878479,17.220459 27.878906,17.22107 27.878906,17.22107 C27.878906,17.22107 19.378906,23.221375 19.378906,23.221375 C19.378906,23.221375 19.378479,23.220764 19.378479,23.220764 C19.13153,23.399628 18.828125,23.505157 18.5,23.505157 C18.179382,23.505157 17.882385,23.404388 17.63861,23.232697 C17.63861,23.232697 10.982422,18.795135 10.982422,18.795135 C10.982422,18.795135 7.8468018,20.754944 7.8468018,20.754944 C7.605835,20.920166 7.314209,21.017242 7.0,21.017242 C6.171509,21.017242 5.5,20.345459 5.5,19.516998 C5.5,18.97638 5.786316,18.50241 6.215332,18.238434 Z"/>
</svg>