<svg xmlns="http://www.w3.org/2000/svg"
 xmlns:xlink="http://www.w3.org/1999/xlink"
 width="23px" height="29px"  viewBox="0 0 23 29">
<path fill-rule="evenodd"  fill="#f38181"
 d="M10.050781,17.853638 C9.841553,18.68689 9.631226,19.560059 9.412842,20.414185 C9.197632,21.255737 9.008423,22.110107 8.6953125,22.883667 C8.1762085,24.165283 7.5167847,25.403076 6.6517334,26.405151 C6.0771484,27.072021 6.199341,26.805664 6.026245,26.769897 C5.894287,26.742432 5.8825684,26.61316 5.8567505,26.425293 C5.7159424,25.406738 5.8118896,24.230103 5.86438,23.085693 C5.923889,21.782104 6.197998,20.697998 6.4525146,19.614868 C6.9370728,17.551392 7.398926,15.527832 7.8876953,13.451172 C7.92041,13.312988 8.007874,13.084595 7.977661,13.005981 C7.7561035,12.428955 7.6122437,11.911011 7.5490723,11.30542 C7.4761963,10.609863 7.5321655,9.961304 7.6884766,9.362305 C7.9644775,8.304321 8.601257,7.366699 9.582336,7.024048 C10.206055,6.807617 10.897278,6.9055176 11.3168335,7.156372 C11.7491455,7.4144287 12.045593,7.822754 12.184082,8.401489 C12.331543,9.017212 12.222839,9.752686 12.104187,10.293335 C11.837036,11.511597 11.486328,12.426514 11.167236,13.602661 C11.009094,14.186157 10.8302,14.785156 10.977844,15.414551 C11.1137085,15.992676 11.414673,16.390991 11.825256,16.689575 C12.250671,16.999512 12.754517,17.16919 13.44989,17.14502 C14.677612,17.10205 15.531006,16.316895 16.101501,15.57666 C17.01355,14.392334 17.566345,12.793091 17.776001,10.890625 C17.843506,10.277222 17.893066,9.572266 17.845703,8.876465 C17.758484,7.5927734 17.35669,6.560425 16.71936,5.7598877 C16.112915,4.9974365 15.252991,4.390747 14.2074585,4.0491943 C13.17041,3.7105713 11.734741,3.5979004 10.459534,3.816162 C8.142456,4.213135 6.5078735,5.5302734 5.545349,7.348877 C5.0410156,8.300781 4.708069,9.39624 4.708069,10.758911 C4.708069,11.809692 4.967407,12.623901 5.3860474,13.258667 C5.5186768,13.460083 5.7141113,13.625977 5.8444824,13.855957 C6.0290527,14.181885 5.815979,14.667114 5.7246704,15.02002 C5.614929,15.445068 5.6032715,16.032104 5.1068115,16.042236 C4.9014893,16.045898 4.6431885,15.895508 4.468811,15.799072 C3.1643066,15.077759 2.371521,13.765991 2.0466309,12.064819 C1.8492432,11.03125 1.8496094,9.825439 2.0466309,8.826538 C2.2370605,7.8603516 2.5914917,6.968628 2.9837036,6.2456055 C3.7979126,4.74292 4.9906616,3.5413818 6.442566,2.6829834 C7.558716,2.022583 8.817993,1.5600586 10.3497925,1.3371582 C10.858276,1.2626953 11.384216,1.2321777 11.954834,1.2054443 C13.622681,1.126709 15.139404,1.5046387 16.280945,2.0147705 C17.486084,2.553711 18.44751,3.2713623 19.261108,4.1606445 C20.098572,5.0755615 20.708618,6.1401367 21.095459,7.4699707 C21.29663,8.161743 21.49292,8.902222 21.49292,9.756958 C21.49292,10.614746 21.311646,11.369873 21.185059,12.125122 C20.71106,14.953247 19.366028,17.26587 17.347412,18.58252 C16.857788,18.901367 16.265564,19.195923 15.593018,19.391968 C14.925964,19.586304 14.165161,19.731812 13.35022,19.67517 C12.558594,19.62085 11.911438,19.40564 11.366699,19.098145 C10.826538,18.792847 10.372559,18.419312 10.050781,17.853638 Z"/>
</svg>