<svg xmlns="http://www.w3.org/2000/svg"
 xmlns:xlink="http://www.w3.org/1999/xlink"
 width="28px" height="24px"  viewBox="0 0 28 24">
<path fill-rule="evenodd"  fill="#f38181"
 d="M18.512573,1.6009521 C20.546997,1.5645752 21.62976,2.3060303 22.66394,3.248413 C23.54181,3.173462 24.682678,2.6827393 25.354675,2.3413086 C25.572449,2.2226562 25.790344,2.1027832 26.008057,1.9842529 C25.624329,3.0212402 25.10382,3.8330078 24.304016,4.449463 C24.126404,4.5859375 23.950012,4.7713623 23.727417,4.8583984 C23.727417,4.8619385 23.727417,4.866577 23.727417,4.8708496 C24.867188,4.859619 25.80719,4.345215 26.700073,4.066162 C26.700073,4.0704346 26.700073,4.074463 26.700073,4.0792236 C26.23108,4.824341 25.596252,5.5806885 24.919006,6.123169 C24.645752,6.340088 24.372314,6.557007 24.09906,6.773926 C24.113892,7.981079 24.081177,9.132568 23.85553,10.147095 C22.543884,16.041992 19.06842,20.044312 13.566803,21.758545 C11.591339,22.37439 8.398773,22.627075 6.135376,22.065063 C5.0129395,21.786743 3.9990845,21.471924 3.0475159,21.056519 C2.519043,20.825195 2.0294495,20.57483 1.5612793,20.289307 C1.4074707,20.1958 1.2537842,20.102173 1.0999756,20.008667 C1.6104736,20.02417 2.2077637,20.164795 2.778473,20.072388 C3.2948303,19.988892 3.8012085,20.010864 4.277527,19.906738 C5.465637,19.645508 6.520569,19.301025 7.4294434,18.76941 C7.870056,18.511475 8.538635,18.209229 8.851746,17.837158 C8.261658,17.84729 7.726898,17.710327 7.288574,17.55603 C5.5895996,16.956299 4.600708,15.853027 3.9572144,14.196045 C4.4720764,14.252686 5.9551086,14.386841 6.302002,14.094116 C5.6538086,14.058228 5.030548,13.682739 4.585144,13.404419 C3.2183838,12.549072 2.1038208,11.115112 2.1121826,8.907837 C2.291504,8.993164 2.4709473,9.078369 2.650299,9.162964 C2.9936218,9.307739 3.3426514,9.385254 3.7522583,9.469971 C3.925293,9.505615 4.271118,9.607056 4.4697876,9.533081 C4.461212,9.533081 4.4526367,9.533081 4.444153,9.533081 C4.1796875,9.226318 3.748932,9.020508 3.4831848,8.690308 C2.6063538,7.600708 1.7845459,5.923462 2.3044434,3.925537 C2.4362793,3.4188232 2.6453857,2.9719238 2.8681946,2.5587158 C2.876648,2.5629883 2.885254,2.5671387 2.8938293,2.5714111 C2.9957886,2.7854004 3.2235107,2.9420166 3.3678284,3.1208496 C3.8156433,3.6757812 4.368042,4.175171 4.930969,4.6151123 C6.8489075,6.1154785 8.576172,7.0369873 11.35022,7.7193604 C12.053894,7.8928223 12.867249,8.0251465 13.707794,8.026367 C13.47171,7.338501 13.547577,6.2263184 13.733429,5.560547 C14.200928,3.887329 15.216248,2.6815186 16.706055,2.0354004 C17.062195,1.8804932 17.457214,1.7678223 17.871948,1.6772461 C18.08551,1.6517334 18.299072,1.6259766 18.512573,1.6009521 Z"/>
</svg>